# xmcd
#
# Track frame offsets: 
#        150
#        12201
#        23882
#        35135
#        46144
#        58938
#        68681
#        85110
#        92788
#        102609
#        117279
#        132143
#        142442
#        153807
#        164264
#        173807
#        183933
#        193893
#        205223
#        213429
#
# Disc length: 2993 seconds
#
# Revision: 0
# Processed by: cddbd v1.5.1PL2 Copyright (c) Steve Scherf et al.
# Submitted via: ExactAudioCopy v0.95b3
#
DISCID=200baf14
DTITLE=Various Artist - Country Roads Vol. 3
DYEAR=1999
DGENRE=Country
TTITLE0=Don Gibson - Run Boy
TTITLE1=Kenny Rogers - Elvira
TTITLE2=Sonny James - Jenny Lou
TTITLE3=Billie Jo Spears - I'm so Lonely I Could Fly
TTITLE4=Jimmy Reed - Let's Get Together
TTITLE5=Dolly Parton - Release Me
TTITLE6=John Denver - Thank God I'm a Country Boy
TTITLE7=Susan Raye - I've Got a Happy Heart
TTITLE8=Johnny Cash - Hey Porter
TTITLE9=Glen Campbell - Rhinestone Cowboy
TTITLE10=Jeannie C. Riley - Harper Valley P.T.A
TTITLE11=Dave Dudley - Six Days on the Road
TTITLE12=Anne Murray - The Last Thing on my Mind
TTITLE13=Everly Brothers - Bird Dog
TTITLE14=Ned Miller - From a Jack to a King
TTITLE15=Frankie Lane - Mule Skinner Blues
TTITLE16=Buddy Knox - Devil Woman
TTITLE17=Patsy Cline - I've Loved and Lost Again
TTITLE18=Roger Miller - Dang Me
TTITLE19=Porter Wagoner - Enough to Make a Grown Man Cry
EXTD=
EXTT0=
EXTT1=
EXTT2=
EXTT3=
EXTT4=
EXTT5=
EXTT6=
EXTT7=
EXTT8=
EXTT9=
EXTT10=
EXTT11=
EXTT12=
EXTT13=
EXTT14=
EXTT15=
EXTT16=
EXTT17=
EXTT18=
EXTT19=
PLAYORDER=
